<svg width="40" height="41" viewBox="0 0 40 41" fill="none" xmlns="http://www.w3.org/2000/svg">
<rect x="8" width="32" height="4" fill="#0267FF"/>
<rect x="18" y="10" width="22" height="4" fill="#0267FF"/>
<rect x="8" y="20" width="32" height="4" fill="#0267FF"/>
<path d="M1.38579 40V32.3H2.85979L6.13779 37.734H5.35679L8.57979 32.3H10.0538L10.0648 40H8.39279L8.38179 34.863H8.70079L6.11579 39.186H5.32379L2.68379 34.863H3.05779V40H1.38579ZM13.7266 35.402H17.4336V36.788H13.7266V35.402ZM13.8586 38.57H18.0496V40H12.0876V32.3H17.9066V33.73H13.8586V38.57ZM24.879 32.3H26.661V40H24.879V32.3ZM21.381 40H19.599V32.3H21.381V40ZM25.011 36.843H21.249V35.336H25.011V36.843ZM28.7002 40V32.3H30.4712V35.325H32.4622V36.865H30.4712V40H28.7002ZM35.4982 40.132C34.9115 40.132 34.3688 40.033 33.8702 39.835C33.3788 39.637 32.9498 39.362 32.5832 39.01C32.2165 38.6507 31.9305 38.229 31.7252 37.745C31.5272 37.2537 31.4282 36.722 31.4282 36.15C31.4282 35.5707 31.5272 35.039 31.7252 34.555C31.9305 34.071 32.2165 33.653 32.5832 33.301C32.9498 32.9417 33.3788 32.663 33.8702 32.465C34.3688 32.267 34.9115 32.168 35.4982 32.168C36.0775 32.168 36.6165 32.267 37.1152 32.465C37.6138 32.663 38.0428 32.9417 38.4022 33.301C38.7688 33.653 39.0548 34.0747 39.2602 34.566C39.4655 35.05 39.5682 35.578 39.5682 36.15C39.5682 36.722 39.4655 37.2537 39.2602 37.745C39.0548 38.229 38.7688 38.6507 38.4022 39.01C38.0428 39.362 37.6138 39.637 37.1152 39.835C36.6165 40.033 36.0775 40.132 35.4982 40.132ZM35.4982 38.614C35.8208 38.614 36.1178 38.5553 36.3892 38.438C36.6605 38.3207 36.8988 38.1557 37.1042 37.943C37.3095 37.723 37.4708 37.4627 37.5882 37.162C37.7055 36.8613 37.7642 36.524 37.7642 36.15C37.7642 35.776 37.7055 35.4387 37.5882 35.138C37.4708 34.8373 37.3095 34.5807 37.1042 34.368C36.8988 34.148 36.6605 33.9793 36.3892 33.862C36.1178 33.7447 35.8208 33.686 35.4982 33.686C35.1828 33.686 34.8858 33.7447 34.6072 33.862C34.3358 33.9793 34.0975 34.148 33.8922 34.368C33.6868 34.5807 33.5255 34.8373 33.4082 35.138C33.2908 35.4387 33.2322 35.776 33.2322 36.15C33.2322 36.524 33.2908 36.8613 33.4082 37.162C33.5255 37.4627 33.6868 37.723 33.8922 37.943C34.0975 38.1557 34.3358 38.3207 34.6072 38.438C34.8858 38.5553 35.1828 38.614 35.4982 38.614Z" fill="#0267FF"/>
</svg>
