<svg width="203" height="56" viewBox="0 0 203 56" fill="none" xmlns="http://www.w3.org/2000/svg">
<path d="M27.5 55.5C26.7025 29.4465 26.0535 28.8003 0 28C26.0535 27.2025 26.6998 26.5535 27.5 0.5C28.2948 26.5535 28.9465 27.1998 55 28C28.9465 28.8003 28.3003 29.4383 27.5 55.5Z" fill="#0267FF"/>
<path d="M101.5 55.5C100.703 29.4465 100.053 28.8003 74 28C100.053 27.2025 100.7 26.5535 101.5 0.5C102.295 26.5535 102.947 27.1998 129 28C102.947 28.8003 102.3 29.4383 101.5 55.5Z" fill="#0267FF"/>
<path d="M175.5 55.5C174.703 29.4465 174.053 28.8003 148 28C174.053 27.2025 174.7 26.5535 175.5 0.5C176.295 26.5535 176.947 27.1998 203 28C176.947 28.8003 176.3 29.4383 175.5 55.5Z" fill="#0267FF"/>
</svg>
